<?xml version="1.0" standalone="no"?><!DOCTYPE svg PUBLIC "-//W3C//DTD SVG 1.1//EN" "http://www.w3.org/Graphics/SVG/1.1/DTD/svg11.dtd"><svg t="1642600954461" class="icon" viewBox="0 0 1024 1024" version="1.1" xmlns="http://www.w3.org/2000/svg" p-id="2916" xmlns:xlink="http://www.w3.org/1999/xlink" width="200" height="200"><defs><style type="text/css"></style></defs><path d="M512 61.44c248.832 0 450.56 201.728 450.56 450.56 0 91.62752-27.36128 176.86528-74.3424 248.0128l31.5392 94.6176a40.96 40.96 0 0 1-46.8992 53.10464l-109.32224-21.87264A448.47104 448.47104 0 0 1 512 962.56C263.168 962.56 61.44 760.832 61.44 512S263.168 61.44 512 61.44z m0 61.44C297.10336 122.88 122.88 297.10336 122.88 512s174.22336 389.12 389.12 389.12c75.42784 0 147.49696-21.44256 209.5104-61.1328l7.68-5.05856 21.25824-14.336 99.84 19.968-29.7984-89.47712 16.46592-24.94464A386.9696 386.9696 0 0 0 901.12 512c0-214.89664-174.22336-389.12-389.12-389.12zM276.48 440.32a71.68 71.68 0 1 1 0 143.36 71.68 71.68 0 0 1 0-143.36z m235.52 0a71.68 71.68 0 1 1 0 143.36 71.68 71.68 0 0 1 0-143.36z m235.52 0a71.68 71.68 0 1 1 0 143.36 71.68 71.68 0 0 1 0-143.36z" fill="#131415" p-id="2917"></path></svg>