<?xml version="1.0" standalone="no"?><!DOCTYPE svg PUBLIC "-//W3C//DTD SVG 1.1//EN" "http://www.w3.org/Graphics/SVG/1.1/DTD/svg11.dtd"><svg t="1642678265645" class="icon" viewBox="0 0 1024 1024" version="1.1" xmlns="http://www.w3.org/2000/svg" p-id="33811" xmlns:xlink="http://www.w3.org/1999/xlink" width="200" height="200"><defs><style type="text/css"></style></defs><path d="M828.032 142.442667c145.706667 99.904 160.853333 309.610667 41.557333 452.906666l-1.642666 1.813334-296.96 305.728-0.704 0.704a83.2 83.2 0 0 1-117.653334 0.32C292.053333 744.213333 192.96 641.728 154.346667 595.349333 35.050667 452.053333 50.176 242.346667 195.882667 142.442667c101.76-69.76 228.501333-60.501333 316.074666 23.978666 87.573333-84.48 214.336-93.717333 316.074667-23.978666z m-36.181333 52.8c-84.608-58.026667-189.056-44.16-254.826667 38.613333a32 32 0 0 1-50.133333 0c-65.770667-82.773333-170.197333-96.64-254.805334-38.613333C119.168 272.64 107.2 438.698667 203.52 554.389333c36.842667 44.245333 135.253333 146.026667 294.250667 304.149334a19.2 19.2 0 0 0 27.136-0.064l0.170666-0.170667 296.085334-304.832c95.509333-115.669333 83.285333-281.045333-29.312-358.229333zM341.333333 234.666667a32 32 0 0 1 0 64c-37.333333 0-64 30.144-64 75.221333a32 32 0 0 1-64 0C213.333333 295.104 266.773333 234.666667 341.333333 234.666667z" fill="#000000" p-id="33812"></path></svg>