<?xml version="1.0" standalone="no"?><!DOCTYPE svg PUBLIC "-//W3C//DTD SVG 1.1//EN" "http://www.w3.org/Graphics/SVG/1.1/DTD/svg11.dtd"><svg t="1642681501855" class="icon" viewBox="0 0 1024 1024" version="1.1" xmlns="http://www.w3.org/2000/svg" p-id="69039" xmlns:xlink="http://www.w3.org/1999/xlink" width="200" height="200"><defs><style type="text/css"></style></defs><path d="M511.546501 703.829938c125.165633 0 224.028344-98.86271 224.028344-224.028344V224.028344C735.574845 98.86271 636.712135 0 511.546501 0 387.287865 0 287.518158 98.86271 287.518158 224.028344v255.77325c0 125.165633 99.769708 224.028344 224.028343 224.028344zM351.914969 224.028344c0-89.792737 70.745793-159.631532 159.631532-159.631533 89.792737 0 160.53853 69.838795 160.53853 159.631533v255.77325c0 89.792737-70.745793 160.53853-160.53853 160.53853-88.88574 0-159.631532-70.745793-159.631532-160.53853V224.028344z" fill="#000000" p-id="69040"></path><path d="M896.113375 479.801594h-64.396812c0 175.957484-144.212578 320.170062-320.170062 320.170062S192.283437 655.759079 192.283437 479.801594H127.886625c0 201.35341 153.282551 364.612932 351.914969 380.938884v163.259522h64.396812V860.740478c197.725421-16.325952 351.914969-179.585474 351.914969-380.938884z" fill="#000000" p-id="69041"></path></svg>