<?xml version="1.0" standalone="no"?><!DOCTYPE svg PUBLIC "-//W3C//DTD SVG 1.1//EN" "http://www.w3.org/Graphics/SVG/1.1/DTD/svg11.dtd"><svg t="1642676928590" class="icon" viewBox="0 0 1024 1024" version="1.1" xmlns="http://www.w3.org/2000/svg" p-id="7159" xmlns:xlink="http://www.w3.org/1999/xlink" width="200" height="200"><defs><style type="text/css"></style></defs><path d="M513 927.3l-360.3-4.4c-14.4-0.2-27.7-7.8-35.1-20.2-7.4-12.4-7.9-27.6-1.3-40.4l57.5-111.1C124.8 681.6 98 597.8 98 512.3c0-228.8 186.2-415 415-415s415 186.2 415 415-186.2 415-415 415z m-292-86.6l292.5 3.6c182.6 0 331.5-148.9 331.5-332s-148.9-332-332-332-332 148.9-332 332c0 76.8 25.6 149 74 208.7 10.4 12.8 12.2 30.6 4.6 45.2L221 840.7z" fill="#333333" p-id="7160"></path><path d="M339 512.3m-46.7 0a46.7 46.7 0 1 0 93.4 0 46.7 46.7 0 1 0-93.4 0Z" fill="#333333" p-id="7161"></path><path d="M683 512.3m-46.7 0a46.7 46.7 0 1 0 93.4 0 46.7 46.7 0 1 0-93.4 0Z" fill="#333333" p-id="7162"></path><path d="M511.8 512.3m-46.7 0a46.7 46.7 0 1 0 93.4 0 46.7 46.7 0 1 0-93.4 0Z" fill="#333333" p-id="7163"></path></svg>