<?xml version="1.0" standalone="no"?><!DOCTYPE svg PUBLIC "-//W3C//DTD SVG 1.1//EN" "http://www.w3.org/Graphics/SVG/1.1/DTD/svg11.dtd"><svg t="1642732230539" class="icon" viewBox="0 0 1024 1024" version="1.1" xmlns="http://www.w3.org/2000/svg" p-id="2395" xmlns:xlink="http://www.w3.org/1999/xlink" width="200" height="200"><defs><style type="text/css"></style></defs><path d="M173.568 291.584c-13.056 0-26.24 4.992-36.224 14.976-19.968 19.968-19.968 52.352 0 72.448l338.432 338.432c19.968 19.968 52.352 19.968 72.448 0s19.968-52.352 0-72.448L209.792 306.56c-9.984-9.984-23.168-14.976-36.224-14.976z" p-id="2396" fill="#000000"></path><path d="M850.432 291.584c-13.056 0-26.24 4.992-36.224 14.976L475.776 644.992c-19.968 19.968-19.968 52.352 0 72.448 19.968 19.968 52.352 19.968 72.448 0l338.432-338.432c19.968-19.968 19.968-52.352 0-72.448-9.984-9.984-23.168-14.976-36.224-14.976z" p-id="2397" fill="#000000"></path></svg>