<?xml version="1.0" standalone="no"?><!DOCTYPE svg PUBLIC "-//W3C//DTD SVG 1.1//EN" "http://www.w3.org/Graphics/SVG/1.1/DTD/svg11.dtd"><svg t="1642679325621" class="icon" viewBox="0 0 1024 1024" version="1.1" xmlns="http://www.w3.org/2000/svg" p-id="62073" data-spm-anchor-id="a313x.7781069.0.i37" width="200" height="200" xmlns:xlink="http://www.w3.org/1999/xlink"><defs><style type="text/css"></style></defs><path d="M543.6 318.6h-255c-17.4 0-31.5-14.1-31.5-31.5s14.1-31.5 31.5-31.5h255c17.4 0 31.5 14.1 31.5 31.5s-14.1 31.5-31.5 31.5zM418 509.1H288.6c-17.4 0-31.5-14.1-31.5-31.5s14.1-31.5 31.5-31.5H418c17.4 0 31.5 14.1 31.5 31.5s-14.1 31.5-31.5 31.5zM481.1 805.9c-7.7 0-15.4-2.2-22.3-6.4-12.3-7.7-19.6-20.9-19.6-35.4l-0.2-95.2c0-10.7 3-21.1 8.6-30.1L790.9 91.5c16.5-26.4 51.5-34.4 77.8-17.8l65.3 41c12.8 8 21.7 20.5 25 35.2 3.4 14.7 0.8 29.8-7.2 42.6L608.5 739.6c-5.7 9-13.8 16.3-23.4 20.9l-85.9 41.2c-5.8 2.8-12 4.2-18.1 4.2z m21.8-135.1l0.1 58.1 52.4-25.1 338.1-539-52.5-32.9-338.1 538.9z" p-id="62074" fill="#000000"></path><path d="M867.6 447.6v441.5c0 3.2-2.6 5.9-5.9 5.9H135.9c-3.2 0-5.9-2.6-5.9-5.9V135.9c0-3.2 2.6-5.9 5.9-5.9h536.2c17.7 0 32-14.3 32-32s-14.3-32-32-32H135.9C97.3 66 66 97.3 66 135.9v753.3c0 38.6 31.3 69.9 69.9 69.9h725.9c38.6 0 69.9-31.3 69.9-69.9V447.6c0-17.7-14.3-32-32-32-17.8 0-32.1 14.3-32.1 32z" p-id="62075" fill="#000000"></path></svg>